<svg xmlns="http://www.w3.org/2000/svg" width="73.503" height="20.955" viewBox="0 0 73.503 20.955">
    <defs>
        <style>
            .cls-1{fill:none}.cls-2{clip-path:url(#clip-path)}.cls-3{fill:#fff}.cls-4{fill:#ffc405}
        </style>
        <clipPath id="clip-path">
            <path id="Path_1" d="M0 0h73.5v20.955H0z" class="cls-1" data-name="Path 1"/>
        </clipPath>
    </defs>
    <g id="심볼_68_1" class="cls-2" data-name="심볼 68 – 1">
        <path id="패스_2065" d="M257.656 169.7c.527 1.476 1.142 2.2 2.109 2.372 1.389.243 1.986-.492 1.934-1.107-.054-.686-.563-.95-2.286-1.425-2.758-.79-5.238-1.564-5.1-4.868.122-3.041 2-4.482 5.643-4.381a5.8 5.8 0 0 1 5.436 3.745l-3.234 1.845c-.457-1.055-1.125-2.092-2.338-2.144-.914-.035-1.249.176-1.336.686a.985.985 0 0 0 .738 1.143c1.125.439 1.916.7 3.129 1.159 1.652.616 3.076 1.46 3.217 3.85.193 3.164-2.057 5.256-6.085 4.992-3.182-.211-4.606-2.144-5.415-4.342z" class="cls-3" data-name="패스 2065" transform="translate(-254.069 -155.036)"/>
        <path id="패스_2066" d="M281.755 175.314h-3.393l-4.782-7.839v7.839h-3.673v-14.449h3.551l4.624 8.135v-8.138h3.674z" class="cls-3" data-name="패스 2066" transform="translate(-257.058 -155.144)"/>
        <path id="패스_2067" d="M290.488 172.344l-.755 2.97h-3.9l3.92-14.449h6.2l4.114 14.449H296.2l-.931-2.97zm.773-3.393h3.252l-1.265-4.482h-.811z" class="cls-3" data-name="패스 2067" transform="translate(-260.063 -155.144)"/>
        <path id="패스_2068" d="M308.6 172.344l-.756 2.97h-3.9l3.92-14.449h6.206l4.113 14.449h-3.867l-.932-2.97zm.773-3.393h3.252l-1.265-4.482h-.811z" class="cls-3" data-name="패스 2068" transform="translate(-263.481 -155.144)"/>
        <path id="패스_2069" d="M328.974 171.437l-1.157 3.932-4.434-1.305L328.407 157a38.662 38.662 0 0 1 7.56 1.8c3.514 1.193 5.723 4.184 4.191 8.074-1.714 4.352-5.595 5.958-11.184 4.563zm2.734-9.284l-1.558 5.29c3.637.843 4.949-.134 5.614-1.778a2.24 2.24 0 0 0-1.632-3.026 11.292 11.292 0 0 0-2.424-.486z" class="cls-3" data-name="패스 2069" transform="translate(-267.149 -154.414)"/>
        <path id="패스_2070" d="M295.766 155.907a2.094 2.094 0 1 1-2.095-2.094 2.094 2.094 0 0 1 2.095 2.094z" class="cls-4" data-name="패스 2070" transform="translate(-261.147 -153.813)"/>
        <path id="패스_2071" d="M313.837 155.907a2.095 2.095 0 1 1-2.094-2.094 2.095 2.095 0 0 1 2.094 2.094z" class="cls-4" data-name="패스 2071" transform="translate(-264.558 -153.813)"/>
    </g>
</svg>
