<svg xmlns="http://www.w3.org/2000/svg" width="31.532" height="27.64" viewBox="0 0 31.532 27.64">
  <g id="Group_284" data-name="Group 284" transform="translate(0.529 0.529)">
    <g id="Group_283" data-name="Group 283" transform="translate(0 0)">
      <g id="Group_280" data-name="Group 280" transform="translate(6.68)">
        <path id="Path_228" data-name="Path 228" d="M-157.179,340.584a2.5,2.5,0,0,1-.527-3.186l-2.825-2.4-14.319,16.867,2.792,2.371a2.5,2.5,0,0,1,3.531-.288,2.5,2.5,0,0,1,.289,3.53l2.864,2.432,14.319-16.867-2.9-2.459A2.5,2.5,0,0,1-157.179,340.584Z" transform="translate(174.85 -335)" fill="#fff" stroke="#000" stroke-miterlimit="10" stroke-width="0.75"/>
      </g>
      <g id="Group_282" data-name="Group 282" transform="translate(0 1.67)">
        <path id="Path_229" data-name="Path 229" d="M-163.329,342.121a2.5,2.5,0,0,1-.527-3.185l-2.825-2.4L-181,353.405l2.792,2.371a2.506,2.506,0,0,1,3.531-.289,2.506,2.506,0,0,1,.289,3.531l2.864,2.432,14.319-16.868-2.9-2.459A2.5,2.5,0,0,1-163.329,342.121Z" transform="translate(181 -336.538)" fill="#fff" stroke="#000" stroke-miterlimit="10" stroke-width="0.75"/>
        <g id="Group_281" data-name="Group 281" transform="translate(4.348 12.891)">
          <line id="Line_6" data-name="Line 6" x2="1.591" y2="1.351" fill="none" stroke="#000" stroke-miterlimit="10" stroke-width="0.75"/>
          <line id="Line_7" data-name="Line 7" x2="2.546" y2="2.161" transform="translate(3.289 2.792)" fill="none" stroke="#000" stroke-miterlimit="10" stroke-width="0.75" stroke-dasharray="2.667 2.667"/>
          <line id="Line_8" data-name="Line 8" x2="1.591" y2="1.351" transform="translate(6.683 5.674)" fill="none" stroke="#000" stroke-miterlimit="10" stroke-width="0.75"/>
        </g>
      </g>
    </g>
    <path id="Path_230" data-name="Path 230" d="M-168.145,344.928l1.764-.928-.337,1.965,1.428,1.391-1.973.287-.882,1.788-.882-1.788-1.973-.287,1.428-1.391-.337-1.965Z" transform="translate(181.861 -334.225)" fill="#e73723" stroke="#000" stroke-miterlimit="10" stroke-width="0.5"/>
  </g>
</svg>
