<svg xmlns="http://www.w3.org/2000/svg" width="32.36" height="21.119" viewBox="0 0 32.36 21.119">
  <g id="Group_926" data-name="Group 926" transform="translate(0 0)">
    <g id="Group_325" data-name="Group 325" transform="translate(0 0)">
      <g id="Group_304" data-name="Group 304" transform="translate(0 4.864)">
        <g id="Group_300" data-name="Group 300" transform="translate(18.636)">
          <g id="Group_298" data-name="Group 298" transform="translate(0.271 0.271)">
            <circle id="Ellipse_5" data-name="Ellipse 5" cx="1.182" cy="1.182" r="1.182" fill="#e73723"/>
          </g>
          <g id="Group_299" data-name="Group 299">
            <path id="Path_240" data-name="Path 240" d="M-221.139,312.009a1.455,1.455,0,0,1-1.453-1.453,1.455,1.455,0,0,1,1.453-1.453,1.455,1.455,0,0,1,1.453,1.453A1.455,1.455,0,0,1-221.139,312.009Zm0-2.363a.911.911,0,0,0-.91.91.911.911,0,0,0,.91.91.911.911,0,0,0,.91-.91A.911.911,0,0,0-221.139,309.646Z" transform="translate(222.592 -309.103)"/>
          </g>
        </g>
        <g id="Group_303" data-name="Group 303">
          <g id="Group_301" data-name="Group 301" transform="translate(0.272 0.271)">
            <circle id="Ellipse_6" data-name="Ellipse 6" cx="1.182" cy="1.182" r="1.182" fill="#e73723"/>
          </g>
          <g id="Group_302" data-name="Group 302">
            <path id="Path_241" data-name="Path 241" d="M-238.3,312.009a1.455,1.455,0,0,1-1.453-1.453A1.456,1.456,0,0,1-238.3,309.1a1.455,1.455,0,0,1,1.453,1.453A1.455,1.455,0,0,1-238.3,312.009Zm0-2.363a.911.911,0,0,0-.91.91.911.911,0,0,0,.91.91.911.911,0,0,0,.91-.91A.911.911,0,0,0-238.3,309.646Z" transform="translate(239.75 -309.103)"/>
          </g>
        </g>
      </g>
      <g id="Group_311" data-name="Group 311" transform="translate(3.272 16.547)">
        <g id="Group_307" data-name="Group 307">
          <g id="Group_305" data-name="Group 305" transform="translate(0.407 0.408)">
            <path id="Rectangle_98" data-name="Rectangle 98" d="M.654,0H2.892a.654.654,0,0,1,.654.654V2.046a1.5,1.5,0,0,1-1.5,1.5H1.5A1.5,1.5,0,0,1,0,2.046V.654A.654.654,0,0,1,.654,0Z" fill="#fff"/>
          </g>
          <g id="Group_306" data-name="Group 306">
            <path id="Path_242" data-name="Path 242" d="M-234.414,324.221h-.287a2.039,2.039,0,0,1-2.036-2.036v-1.207a1.119,1.119,0,0,1,1.118-1.118h2.125a1.118,1.118,0,0,1,1.117,1.118v1.207A2.039,2.039,0,0,1-234.414,324.221Zm-1.206-3.546a.3.3,0,0,0-.3.3v1.207a1.224,1.224,0,0,0,1.222,1.222h.287a1.224,1.224,0,0,0,1.222-1.222v-1.207a.3.3,0,0,0-.3-.3Z" transform="translate(236.737 -319.86)"/>
          </g>
        </g>
        <g id="Group_310" data-name="Group 310" transform="translate(10.637)">
          <g id="Group_308" data-name="Group 308" transform="translate(0.407 0.408)">
            <path id="Rectangle_99" data-name="Rectangle 99" d="M.654,0H2.892a.654.654,0,0,1,.654.654V2.046a1.5,1.5,0,0,1-1.5,1.5H1.5A1.5,1.5,0,0,1,0,2.046V.654A.654.654,0,0,1,.654,0Z" fill="#fff"/>
          </g>
          <g id="Group_309" data-name="Group 309">
            <path id="Path_243" data-name="Path 243" d="M-224.619,324.221h-.288a2.039,2.039,0,0,1-2.036-2.036v-1.207a1.118,1.118,0,0,1,1.117-1.118h2.127a1.119,1.119,0,0,1,1.118,1.118v1.207A2.039,2.039,0,0,1-224.619,324.221Zm-1.208-3.546a.3.3,0,0,0-.3.3v1.207a1.224,1.224,0,0,0,1.222,1.222h.288a1.224,1.224,0,0,0,1.222-1.222v-1.207a.3.3,0,0,0-.3-.3Z" transform="translate(226.943 -319.86)"/>
          </g>
        </g>
      </g>
      <g id="Group_314" data-name="Group 314" transform="translate(1.839)">
        <g id="Group_312" data-name="Group 312" transform="translate(0.408 0.407)">
          <path id="Rectangle_100" data-name="Rectangle 100" d="M2.633,0H14.417a2.633,2.633,0,0,1,2.633,2.633V9.456a0,0,0,0,1,0,0H0a0,0,0,0,1,0,0V2.633A2.633,2.633,0,0,1,2.633,0Z" fill="#fff"/>
        </g>
        <g id="Group_313" data-name="Group 313">
          <path id="Path_244" data-name="Path 244" d="M-220.193,314.9h-17.864v-7a3.27,3.27,0,0,1,3.267-3.267h11.33a3.27,3.27,0,0,1,3.267,3.267Zm-17.05-.815h16.235v-6.189a2.455,2.455,0,0,0-2.452-2.452h-11.33a2.455,2.455,0,0,0-2.452,2.452Z" transform="translate(238.057 -304.625)"/>
        </g>
      </g>
      <g id="Group_317" data-name="Group 317" transform="translate(0.357 5.91)">
        <g id="Group_315" data-name="Group 315" transform="translate(0.407 0.407)">
          <rect id="Rectangle_101" data-name="Rectangle 101" width="20.014" height="10.638" rx="3.319" fill="#fff"/>
        </g>
        <g id="Group_316" data-name="Group 316">
          <path id="Path_245" data-name="Path 245" d="M-222.6,321.518h-12.8a4.016,4.016,0,0,1-4.012-4.012v-3.427a4.017,4.017,0,0,1,4.012-4.013h12.8a4.017,4.017,0,0,1,4.012,4.013v3.427A4.016,4.016,0,0,1-222.6,321.518Zm-12.8-10.637a3.2,3.2,0,0,0-3.2,3.2v3.427a3.2,3.2,0,0,0,3.2,3.2h12.8a3.2,3.2,0,0,0,3.2-3.2v-3.427a3.2,3.2,0,0,0-3.2-3.2Z" transform="translate(239.421 -310.066)"/>
        </g>
      </g>
      <g id="Group_324" data-name="Group 324" transform="translate(2.62 10.182)">
        <g id="Group_320" data-name="Group 320" transform="translate(12.805)">
          <g id="Group_318" data-name="Group 318" transform="translate(0.271 0.272)">
            <circle id="Ellipse_7" data-name="Ellipse 7" cx="1.477" cy="1.477" r="1.477" fill="#fff"/>
          </g>
          <g id="Group_319" data-name="Group 319">
            <path id="Path_246" data-name="Path 246" d="M-223.8,317.5a1.751,1.751,0,0,1-1.749-1.75A1.75,1.75,0,0,1-223.8,314a1.75,1.75,0,0,1,1.749,1.749A1.751,1.751,0,0,1-223.8,317.5Zm0-2.955A1.207,1.207,0,0,0-225,315.749a1.207,1.207,0,0,0,1.206,1.207,1.207,1.207,0,0,0,1.206-1.207A1.207,1.207,0,0,0-223.8,314.543Z" transform="translate(225.548 -314)"/>
          </g>
        </g>
        <g id="Group_323" data-name="Group 323">
          <g id="Group_321" data-name="Group 321" transform="translate(0.272 0.272)">
            <circle id="Ellipse_8" data-name="Ellipse 8" cx="1.477" cy="1.477" r="1.477" fill="#fff"/>
          </g>
          <g id="Group_322" data-name="Group 322">
            <path id="Path_247" data-name="Path 247" d="M-235.589,317.5a1.751,1.751,0,0,1-1.749-1.75A1.75,1.75,0,0,1-235.589,314a1.75,1.75,0,0,1,1.75,1.749A1.751,1.751,0,0,1-235.589,317.5Zm0-2.955a1.207,1.207,0,0,0-1.206,1.206,1.207,1.207,0,0,0,1.206,1.207,1.208,1.208,0,0,0,1.207-1.207A1.207,1.207,0,0,0-235.589,314.543Z" transform="translate(237.338 -314)"/>
          </g>
        </g>
      </g>
    </g>
    <g id="Group_345" data-name="Group 345" transform="translate(19.209 2.404)">
      <g id="Group_328" data-name="Group 328" transform="translate(1.798 2.229)">
        <g id="Group_326" data-name="Group 326" transform="translate(0.407 0.407)">
          <rect id="Rectangle_102" data-name="Rectangle 102" width="8.274" height="14.183" rx="3.5" fill="#fff"/>
        </g>
        <g id="Group_327" data-name="Group 327">
          <path id="Path_248" data-name="Path 248" d="M-215.53,323.888h-.67a4.214,4.214,0,0,1-4.209-4.209V313.1a4.213,4.213,0,0,1,4.209-4.209h.67a4.213,4.213,0,0,1,4.209,4.209v6.581A4.214,4.214,0,0,1-215.53,323.888Zm-.67-14.184a3.4,3.4,0,0,0-3.394,3.394v6.581a3.4,3.4,0,0,0,3.394,3.394h.67a3.4,3.4,0,0,0,3.394-3.394V313.1a3.4,3.4,0,0,0-3.394-3.394Z" transform="translate(220.409 -308.89)"/>
        </g>
      </g>
      <g id="Group_335" data-name="Group 335" transform="translate(4.961 13.593)">
        <g id="Group_331" data-name="Group 331" transform="translate(0.109 0.135)">
          <g id="Group_329" data-name="Group 329" transform="translate(0.271 0.271)">
            <rect id="Rectangle_103" data-name="Rectangle 103" width="2.002" height="4.311" rx="0.847" fill="#fff"/>
          </g>
          <g id="Group_330" data-name="Group 330">
            <path id="Path_249" data-name="Path 249" d="M-216.043,324.331h-.163a1.192,1.192,0,0,1-1.19-1.191v-2.471a1.192,1.192,0,0,1,1.19-1.191h.163a1.192,1.192,0,0,1,1.19,1.191v2.471A1.192,1.192,0,0,1-216.043,324.331Zm-.163-4.311a.648.648,0,0,0-.647.648v2.471a.648.648,0,0,0,.647.648h.163a.648.648,0,0,0,.647-.648v-2.471a.648.648,0,0,0-.647-.648Z" transform="translate(217.396 -319.477)"/>
          </g>
        </g>
        <g id="Group_334" data-name="Group 334">
          <g id="Group_332" data-name="Group 332" transform="translate(0.273 0.272)">
            <path id="Path_250" data-name="Path 250" d="M-216.137,324.183a1.276,1.276,0,0,1-1.108-1.392V321a1.276,1.276,0,0,1,1.108-1.392A1.277,1.277,0,0,1-215.029,321v1.8A1.277,1.277,0,0,1-216.137,324.183Zm0-4.311a1.029,1.029,0,0,0-.894,1.123v1.8a1.029,1.029,0,0,0,.894,1.123,1.03,1.03,0,0,0,.894-1.123V321A1.03,1.03,0,0,0-216.137,319.872Z" transform="translate(217.245 -319.603)"/>
          </g>
          <g id="Group_333" data-name="Group 333">
            <path id="Path_251" data-name="Path 251" d="M-216.116,324.476a1.544,1.544,0,0,1-1.38-1.664v-1.8a1.544,1.544,0,0,1,1.38-1.664,1.544,1.544,0,0,1,1.379,1.664v1.8A1.544,1.544,0,0,1-216.116,324.476Zm0-4.311c-.338,0-.622.39-.622.852v1.8c0,.462.285.852.622.852s.622-.39.622-.852v-1.8C-215.493,320.555-215.779,320.165-216.116,320.165Z" transform="translate(217.496 -319.353)"/>
          </g>
        </g>
      </g>
      <g id="Group_338" data-name="Group 338" transform="translate(7.092 1.774)">
        <g id="Group_336" data-name="Group 336" transform="translate(0.271 0.271)">
          <ellipse id="Ellipse_9" data-name="Ellipse 9" cx="2.758" cy="0.886" rx="2.758" ry="0.886" fill="#fff"/>
        </g>
        <g id="Group_337" data-name="Group 337">
          <path id="Path_252" data-name="Path 252" d="M-212.5,310.787c-1.459,0-3.029-.362-3.029-1.158s1.571-1.158,3.029-1.158,3.029.362,3.029,1.158S-211.046,310.787-212.5,310.787Zm0-1.772c-1.615,0-2.486.437-2.486.615s.871.615,2.486.615,2.486-.437,2.486-.615S-210.89,309.014-212.5,309.014Z" transform="translate(215.534 -308.471)"/>
        </g>
      </g>
      <g id="Group_341" data-name="Group 341" transform="translate(0 1.774)">
        <g id="Group_339" data-name="Group 339" transform="translate(0.272 0.271)">
          <ellipse id="Ellipse_10" data-name="Ellipse 10" cx="2.758" cy="0.886" rx="2.758" ry="0.886" fill="#fff"/>
        </g>
        <g id="Group_340" data-name="Group 340">
          <path id="Path_253" data-name="Path 253" d="M-219.034,310.787c-1.46,0-3.03-.362-3.03-1.158s1.571-1.158,3.03-1.158,3.029.362,3.029,1.158S-217.575,310.787-219.034,310.787Zm0-1.772c-1.616,0-2.487.437-2.487.615s.871.615,2.487.615,2.486-.437,2.486-.615S-217.42,309.014-219.034,309.014Z" transform="translate(222.064 -308.471)"/>
        </g>
      </g>
      <g id="Group_344" data-name="Group 344" transform="translate(4.334)">
        <g id="Group_342" data-name="Group 342" transform="translate(0.272 0.272)">
          <circle id="Ellipse_11" data-name="Ellipse 11" cx="1.773" cy="1.773" r="1.773" fill="#e73723"/>
        </g>
        <g id="Group_343" data-name="Group 343">
          <path id="Path_254" data-name="Path 254" d="M-216.029,310.927a2.047,2.047,0,0,1-2.045-2.044,2.048,2.048,0,0,1,2.045-2.045,2.047,2.047,0,0,1,2.044,2.045A2.046,2.046,0,0,1-216.029,310.927Zm0-3.546a1.5,1.5,0,0,0-1.5,1.5,1.5,1.5,0,0,0,1.5,1.5,1.5,1.5,0,0,0,1.5-1.5A1.5,1.5,0,0,0-216.029,307.381Z" transform="translate(218.074 -306.838)"/>
        </g>
      </g>
    </g>
  </g>
</svg>
