<svg xmlns="http://www.w3.org/2000/svg" width="26.93" height="30.489" viewBox="0 0 26.93 30.489">
  <g id="Group_286" data-name="Group 286" transform="translate(0.677 0.406)">
    <g id="Group_285" data-name="Group 285" transform="translate(0 0)">
      <path id="Path_231" data-name="Path 231" d="M-137.23,379.361h-7.6V371c0-1.914,1.6-3.113,2.879-2.164l3.754,2.778a2.693,2.693,0,0,1,.97,2.164Z" transform="translate(147.54 -368.5)" fill="#e73723" stroke="#000" stroke-miterlimit="10" stroke-width="0.75"/>
      <rect id="Rectangle_88" data-name="Rectangle 88" width="13" height="5" rx="0.898" transform="translate(-0.302 24.708)" fill="#fff" stroke="#000" stroke-miterlimit="10" stroke-width="0.75"/>
      <rect id="Rectangle_89" data-name="Rectangle 89" width="11" height="17" rx="1.497" transform="translate(0.698 10.708)" fill="#fff" stroke="#000" stroke-miterlimit="10" stroke-width="0.75"/>
    </g>
    <path id="Rectangle_90" data-name="Rectangle 90" d="M1.907,0H8.954a1.907,1.907,0,0,1,1.907,1.907V16.292a0,0,0,0,1,0,0H0a0,0,0,0,1,0,0V1.907A1.907,1.907,0,0,1,1.907,0Z" transform="translate(15.016 13.033)" fill="#fff" stroke="#000" stroke-miterlimit="10" stroke-width="0.75"/>
  </g>
</svg>
