<svg xmlns="http://www.w3.org/2000/svg" width="23.623" height="19.957" viewBox="0 0 23.623 19.957">
  <g id="Group_297" data-name="Group 297" transform="translate(0 0)">
    <g id="Group_293" data-name="Group 293" transform="translate(6.029 0)">
      <path id="Path_234" data-name="Path 234" d="M-184.823,311.6h-11.565v-5.89A1.715,1.715,0,0,1-194.676,304h8.142a1.715,1.715,0,0,1,1.712,1.713Zm-10.479-1.086h9.393v-4.8a.627.627,0,0,0-.626-.627h-8.142a.627.627,0,0,0-.626.627Z" transform="translate(196.388 -304)"/>
    </g>
    <g id="Group_294" data-name="Group 294" transform="translate(0 4.48)">
      <path id="Path_235" data-name="Path 235" d="M-180.191,308.5h-19.937a1.436,1.436,0,0,0-1.436,1.436v4.731a1.436,1.436,0,0,0,1.436,1.436h6.167v-3.258h7.6V316.1h6.167a1.436,1.436,0,0,0,1.436-1.436v-4.731A1.436,1.436,0,0,0-180.191,308.5Z" transform="translate(201.971 -308.093)" fill="#fff"/>
      <path id="Path_236" data-name="Path 236" d="M-180.159,316.542h-6.574v-3.258h-6.788v3.258H-200.1a1.845,1.845,0,0,1-1.843-1.843v-4.731a1.845,1.845,0,0,1,1.843-1.843h19.937a1.845,1.845,0,0,1,1.843,1.843V314.7A1.845,1.845,0,0,1-180.159,316.542Zm-5.76-.815h5.76a1.03,1.03,0,0,0,1.029-1.029v-4.731a1.03,1.03,0,0,0-1.029-1.029H-200.1a1.03,1.03,0,0,0-1.029,1.029V314.7a1.03,1.03,0,0,0,1.029,1.029h5.76v-3.258h8.417Z" transform="translate(201.939 -308.125)"/>
    </g>
    <g id="Group_295" data-name="Group 295" transform="translate(1.049 13.292)">
      <path id="Path_237" data-name="Path 237" d="M-181.191,322.464h-18.1a1.217,1.217,0,0,1-1.3-1.1v-3.642a1.216,1.216,0,0,1,1.3-1.1h5.6v.766h6.9v-.766h5.6a1.216,1.216,0,0,1,1.3,1.1v3.642A1.217,1.217,0,0,1-181.191,322.464Z" transform="translate(201.005 -316.206)" fill="#fff"/>
      <path id="Path_238" data-name="Path 238" d="M-181.159,322.9h-18.1a1.622,1.622,0,0,1-1.711-1.513V317.75a1.622,1.622,0,0,1,1.711-1.512h6.007V317h6.089v-.766h6.007a1.622,1.622,0,0,1,1.711,1.512v3.641A1.622,1.622,0,0,1-181.159,322.9Zm-18.1-5.851a.817.817,0,0,0-.9.7v3.641a.816.816,0,0,0,.9.7h18.1a.816.816,0,0,0,.9-.7V317.75a.816.816,0,0,0-.9-.7h-5.193v.766h-7.718v-.766Z" transform="translate(200.973 -316.238)"/>
    </g>
    <g id="Group_296" data-name="Group 296" transform="translate(8.93 9.911)">
      <rect id="Rectangle_97" data-name="Rectangle 97" width="4.948" height="3.258" transform="translate(0.408 0.407)" fill="#e73723"/>
      <path id="Path_239" data-name="Path 239" d="M-187.954,317.2h-5.763v-4.073h5.763Zm-4.948-.815h4.134V313.94H-192.9Z" transform="translate(193.717 -313.125)"/>
    </g>
  </g>
</svg>
