<svg xmlns="http://www.w3.org/2000/svg" width="18.328" height="31.226" viewBox="0 0 18.328 31.226">
  <g id="Group_353" data-name="Group 353" transform="translate(0 0)">
    <g id="Group_347" data-name="Group 347" transform="translate(2.172)">
      <path id="Path_255" data-name="Path 255" d="M-249.811,306.129v-2.457a2.172,2.172,0,0,0-2.172-2.172,2.172,2.172,0,0,0-2.172,2.172v2.457c-2.53.671-4.344,2.476-4.344,4.6,0,2.7,2.917,4.888,6.517,4.888s6.517-2.189,6.517-4.888C-245.467,308.605-247.282,306.8-249.811,306.129Z" transform="translate(258.907 -301.093)" fill="#e73723"/>
      <path id="Path_256" data-name="Path 256" d="M-251.951,316.059c-3.818,0-6.924-2.375-6.924-5.295,0-2.169,1.732-4.111,4.344-4.91V303.7a2.582,2.582,0,0,1,2.58-2.579,2.582,2.582,0,0,1,2.58,2.579v2.149c2.612.8,4.344,2.741,4.344,4.91C-245.027,313.684-248.133,316.059-251.951,316.059Zm0-14.119a1.767,1.767,0,0,0-1.765,1.765v2.77l-.3.08c-2.417.642-4.041,2.333-4.041,4.21,0,2.47,2.74,4.48,6.109,4.48s6.109-2.01,6.109-4.48c0-1.877-1.625-3.568-4.041-4.21l-.3-.08V303.7A1.767,1.767,0,0,0-251.951,301.94Z" transform="translate(258.875 -301.125)"/>
    </g>
    <g id="Group_348" data-name="Group 348" transform="translate(0 8.689)">
      <rect id="Rectangle_104" data-name="Rectangle 104" width="17.378" height="21.722" rx="1.999" transform="translate(0.407 0.407)" fill="#fff"/>
      <path id="Path_257" data-name="Path 257" d="M-245.262,331.662H-258.3a2.582,2.582,0,0,1-2.579-2.579V311.7a2.582,2.582,0,0,1,2.579-2.58h13.033a2.582,2.582,0,0,1,2.58,2.58v17.378A2.582,2.582,0,0,1-245.262,331.662ZM-258.3,309.94a1.767,1.767,0,0,0-1.765,1.765v17.378a1.767,1.767,0,0,0,1.765,1.765h13.033a1.767,1.767,0,0,0,1.765-1.765V311.7a1.767,1.767,0,0,0-1.765-1.765Z" transform="translate(260.875 -309.125)"/>
    </g>
    <g id="Group_352" data-name="Group 352" transform="translate(12.898 15.206)">
      <g id="Group_349" data-name="Group 349">
        <line id="Line_11" data-name="Line 11" x2="5.431" transform="translate(0 0.407)" fill="#fff"/>
        <rect id="Rectangle_105" data-name="Rectangle 105" width="5.431" height="0.815"/>
      </g>
      <g id="Group_350" data-name="Group 350" transform="translate(0 4.344)">
        <line id="Line_12" data-name="Line 12" x2="5.431" transform="translate(0 0.407)" fill="#fff"/>
        <rect id="Rectangle_106" data-name="Rectangle 106" width="5.431" height="0.815"/>
      </g>
      <g id="Group_351" data-name="Group 351" transform="translate(0 8.689)">
        <line id="Line_13" data-name="Line 13" x2="5.431" transform="translate(0 0.407)" fill="#fff"/>
        <rect id="Rectangle_107" data-name="Rectangle 107" width="5.431" height="0.815"/>
      </g>
    </g>
  </g>
</svg>
