<svg xmlns="http://www.w3.org/2000/svg" width="27.903" height="25.731" viewBox="0 0 27.903 25.731">
  <g id="Group_276" data-name="Group 276" transform="translate(0.375 0.375)">
    <path id="Path_224" data-name="Path 224" d="M-129.822,337.118a6.238,6.238,0,0,1-6.165,5.3,6.238,6.238,0,0,1-6.164-5.3c-3.227,2.208-7.413,8.415-7.413,11.276,0,3.258,5.431,3.258,5.431,3.258v8.026a1.749,1.749,0,0,0,1.749,1.749h12.8a1.748,1.748,0,0,0,1.748-1.749v-8.026s5.431,0,5.431-3.258C-122.41,345.533-126.595,339.326-129.822,337.118Z" transform="translate(149.563 -336.447)" fill="#fff" stroke="#000" stroke-miterlimit="10" stroke-width="0.75"/>
    <path id="Path_225" data-name="Path 225" d="M-132.366,336.5a.584.584,0,0,0-.554.451,3.785,3.785,0,0,1-3.654,2.808,3.785,3.785,0,0,1-3.653-2.808.584.584,0,0,0-.554-.451h-1.379a.592.592,0,0,0-.577.694,6.24,6.24,0,0,0,6.163,5.28,6.24,6.24,0,0,0,6.164-5.28.592.592,0,0,0-.577-.694Z" transform="translate(150.15 -336.5)" fill="#e73723" stroke="#000" stroke-miterlimit="10" stroke-width="0.75"/>
  </g>
</svg>
