<?xml version="1.0" standalone="no"?>
<!DOCTYPE svg PUBLIC "-//W3C//DTD SVG 1.1//EN" "http://www.w3.org/Graphics/SVG/1.1/DTD/svg11.dtd" >
<svg xmlns="http://www.w3.org/2000/svg">
<metadata>Generated by IcoMoon</metadata>
<defs>
<font id="icomoon" horiz-adv-x="1024">
<font-face units-per-em="1024" ascent="960" descent="-64" />
<missing-glyph horiz-adv-x="1024" />
<glyph unicode="&#x20;" horiz-adv-x="512" d="" />
<glyph unicode="&#xe900;" horiz-adv-x="904" d="M369.008 581.588h-255.253v280.812c0 64.283 53.737 104.553 96.694 72.68l126.081-93.302c20-16.708 32.632-41.657 32.632-69.556 0-1.098-0.020-2.192-0.058-3.281l0.004 0.158z" />
<glyph unicode="&#xe901;" horiz-adv-x="904" d="M42.755 116.524h376.296c16.657 0 30.16-13.503 30.16-30.16v-107.609c0-16.657-13.503-30.16-30.16-30.16h-376.296c-16.657 0-30.16 13.503-30.16 30.16v107.609c0 16.657 13.503 30.16 30.16 30.16z" />
<glyph unicode="&#xe902;" horiz-adv-x="904" d="M96.459 586.726h268.889c27.768 0 50.278-22.51 50.278-50.278v-470.404c0-27.768-22.51-50.278-50.278-50.278h-268.889c-27.768 0-50.278 22.51-50.278 50.278v470.404c0 27.768 22.51 50.278 50.278 50.278z" />
<glyph unicode="&#xe903;" horiz-adv-x="904" d="M591.112 508.639h236.68c35.373 0 64.048-28.675 64.048-64.048v0-483.133h-364.776v483.133c0 35.373 28.675 64.048 64.048 64.048v0z" />
<glyph unicode="&#xe904;" horiz-adv-x="1212" d="M902.754 570.042h-593.404v302.218c0.146 48.435 39.4 87.653 87.835 87.741h417.777c48.497-0.088 87.785-39.393 87.843-87.889v-0.006zM365.073 625.765h481.958v246.29c0 0 0 0 0 0 0 17.75-14.374 32.142-32.117 32.172h-417.772c-17.746-0.029-32.12-14.422-32.12-32.172 0 0 0 0 0 0v0z" />
<glyph unicode="&#xe905;" horiz-adv-x="1212" d="M1117.539 709.246h-1022.974c-40.693 0-73.682-32.988-73.682-73.682v0-242.749c0-40.693 32.988-73.682 73.682-73.682v0h316.431v167.169h389.958v-167.015h316.431c40.693 0 73.682 32.988 73.682 73.682v0 242.749c-0.087 40.573-32.955 73.44-73.519 73.528h-0.008z" />
<glyph unicode="&#xe906;" horiz-adv-x="1212" d="M1117.539 298.251h-337.314v167.169h-348.294v-167.169h-337.571c-52.203 0.058-94.507 42.362-94.565 94.559v242.755c0.058 52.203 42.362 94.507 94.559 94.565h1022.979c52.203-0.058 94.507-42.362 94.565-94.559v-242.806c-0.087-52.109-42.263-94.339-94.343-94.514h-0.017zM821.991 340.069h295.547c29.148 0.029 52.769 23.65 52.798 52.796v242.752c-0.029 29.148-23.65 52.769-52.796 52.798h-1023.182c-29.148-0.029-52.769-23.65-52.798-52.796v-242.855c0.029-29.148 23.65-52.769 52.796-52.798h295.55v167.169h431.879z" />
<glyph unicode="&#xe907;" horiz-adv-x="1212" d="M1070.487-43.117h-928.717c-1.356-0.105-2.937-0.165-4.532-0.165-32.431 0-59.088 24.724-62.151 56.351l-0.020 0.255v186.872c3.056 31.879 29.702 56.61 62.125 56.61 1.611 0 3.208-0.061 4.789-0.181l-0.21 0.013h287.338v-39.304h354.041v39.304h287.338c1.37 0.107 2.967 0.168 4.579 0.168 32.422 0 59.069-24.73 62.105-56.357l0.020-0.253v-186.872c-3.083-31.882-29.74-56.606-62.171-56.606-1.595 0-3.176 0.060-4.741 0.177l0.208-0.013z" />
<glyph unicode="&#xe908;" horiz-adv-x="1212" d="M1070.487-63.846h-928.717c-1.418-0.086-3.076-0.135-4.746-0.135-44.044 0-80.097 34.213-83.032 77.512l-0.014 0.255v186.616c2.975 43.532 39.017 77.717 83.043 77.717 1.671 0 3.33-0.049 4.976-0.146l-0.227 0.011h308.221v-39.098h312.428v39.304h308.221c1.419 0.086 3.078 0.136 4.749 0.136 44.026 0 80.067-34.185 83.029-77.459l0.014-0.258v-186.821c-2.945-43.559-39-77.777-83.047-77.777-1.723 0-3.435 0.052-5.132 0.156l0.233-0.011zM141.77 236.371c-1.397 0.165-3.014 0.259-4.654 0.259-21.126 0-38.602-15.627-41.499-35.953l-0.026-0.223v-186.821c2.897-20.547 20.363-36.182 41.481-36.182 1.655 0 3.288 0.096 4.893 0.283l-0.195-0.018h928.717c1.41-0.168 3.043-0.264 4.698-0.264 21.118 0 38.584 15.634 41.455 35.96l0.026 0.222v186.77c-2.897 20.547-20.363 36.182-41.481 36.182-1.655 0-3.288-0.096-4.893-0.283l0.195 0.018h-266.454v-39.304h-396.013v39.304z" />
<glyph unicode="&#xe909;" horiz-adv-x="1212" d="M479.136 430.58h253.883v-167.169h-253.883v167.169z" />
<glyph unicode="&#xe90a;" horiz-adv-x="1212" d="M753.902 242.374h-295.701v208.987h295.701zM500.019 284.192h212.117v125.454h-212.014z" />
<glyph unicode="&#xe90b;" horiz-adv-x="1168" d="M921.748 733.527c-20.013 17.094-32.618 42.353-32.618 70.557 0 17.527 4.868 33.917 13.327 47.891l-0.232-0.413-104.66 88.915-530.487-624.885 103.437-87.84c17.099 20.126 42.428 32.812 70.721 32.812 22.992 0 44.028-8.378 60.22-22.247l-0.126 0.105c20.128-17.099 32.815-42.43 32.815-70.724 0-22.974-8.365-43.994-22.214-60.181l0.106 0.126 106.105-90.1 530.487 624.885-107.438 91.1c-16.009-13.573-36.901-21.826-59.721-21.826s-43.712 8.253-59.855 21.937l0.134-0.111z" />
<glyph unicode="&#xe90c;" horiz-adv-x="1168" d="M674.269 671.694c-20.004 17.094-32.604 42.348-32.604 70.544 0 17.517 4.863 33.898 13.312 47.867l-0.232-0.414-104.66 88.915-530.487-624.959 103.437-87.84c17.136 20.087 42.473 32.743 70.765 32.743 22.961 0 43.975-8.335 60.181-22.144l-0.13 0.108c20.087-17.136 32.743-42.473 32.743-70.765 0-22.961-8.335-43.975-22.144-60.181l0.108 0.13 106.105-90.1 530.487 624.922-107.438 91.1c-16.002-13.55-36.877-21.789-59.677-21.789-22.84 0-43.749 8.268-59.898 21.973l0.133-0.11z" />
<glyph unicode="&#xe90d;" horiz-adv-x="1168" d="mNaNclNaNNaNclNaNNaNNaNNaNclNaNNaNclNaNNaN" />
<glyph unicode="&#xe90e;" horiz-adv-x="1168" d="mNaNclNaNNaNclNaNNaNNaNNaNclNaNNaNclNaNNaN" />
<glyph unicode="&#xe90f;" horiz-adv-x="1168" d="mNaNclNaNNaNclNaNNaNNaNNaNclNaNNaNclNaNNaN" />
<glyph unicode="&#xe910;" horiz-adv-x="1168" d="M527.745 543.88l65.352 34.38-12.485-72.799 52.904-51.533-73.095-10.633-32.676-66.241-32.676 66.241-73.095 10.633 52.904 51.533-12.485 72.799z" />
<glyph unicode="&#xe911;" horiz-adv-x="1569" d="M1031.37 653.707c0-31.652-25.659-57.312-57.312-57.312s-57.312 25.659-57.312 57.312c0 31.652 25.659 57.312 57.312 57.312s57.312-25.659 57.312-57.312z" />
<glyph unicode="&#xe912;" horiz-adv-x="1569" d="M974.058 583.255c-38.887 0.055-70.397 31.565-70.452 70.447v0.005c0.055 38.887 31.565 70.397 70.447 70.452h0.005c38.887-0.055 70.397-31.565 70.452-70.447v-0.005c-0.055-38.887-31.565-70.397-70.447-70.452h-0.005zM974.058 697.83c-24.358-0.028-44.096-19.766-44.123-44.121v-0.003c0.028-24.358 19.766-44.096 44.121-44.123h0.003c24.358 0.028 44.096 19.766 44.123 44.121v0.003c-0.028 24.358-19.766 44.096-44.121 44.123h-0.003z" />
<glyph unicode="&#xe913;" horiz-adv-x="1569" d="M127.812 653.707c0-31.652-25.659-57.312-57.312-57.312s-57.312 25.659-57.312 57.312c0 31.652 25.659 57.312 57.312 57.312s57.312-25.659 57.312-57.312z" />
<glyph unicode="&#xe914;" horiz-adv-x="1569" d="M70.306 583.255c-38.887 0.055-70.397 31.565-70.452 70.447v0.005c0 0 0 0 0 0 0 38.939 31.525 70.514 70.444 70.597h0.008c38.887-0.055 70.397-31.565 70.452-70.447v-0.005c0-0.014 0-0.031 0-0.049 0-38.929-31.531-70.494-70.447-70.549h-0.005zM70.306 697.83c-24.358-0.028-44.096-19.766-44.123-44.121v-0.003c0.028-24.358 19.766-44.096 44.121-44.123h0.003c24.358 0.028 44.096 19.766 44.123 44.121v0.003c-0.028 24.358-19.766 44.096-44.121 44.123h-0.003z" />
<glyph unicode="&#xe915;" horiz-adv-x="1569" d="M210.095 137.9h108.514c17.513 0 31.711-14.197 31.711-31.711v-67.494c0-40.168-32.563-72.731-72.731-72.731v0h-26.474c-40.168 0-72.731 32.563-72.731 72.731v0 67.494c0 17.513 14.197 31.711 31.711 31.711v0z" />
<glyph unicode="&#xe916;" horiz-adv-x="1569" d="M271.286-53.769h-13.916c-54.488 0.083-98.637 44.232-98.72 98.712v58.532c0.028 29.928 24.281 54.181 54.206 54.209h103.038c29.918-0.028 54.16-24.287 54.16-54.209v0-58.524c-0.083-54.505-44.259-98.665-98.763-98.72h-0.005zM212.81 118.166c-8.034 0-14.546-6.513-14.546-14.546v0-58.524c0.055-32.701 26.55-59.196 59.246-59.251h13.921c32.701 0.055 59.196 26.55 59.251 59.246v58.529c0 8.034-6.513 14.546-14.546 14.546v0z" />
<glyph unicode="&#xe917;" horiz-adv-x="1569" d="M725.853 137.9h108.514c17.513 0 31.711-14.197 31.711-31.711v-67.494c0-40.168-32.563-72.731-72.731-72.731v0h-26.474c-40.168 0-72.731 32.563-72.731 72.731v0 67.494c0 17.513 14.197 31.711 31.711 31.711v0z" />
<glyph unicode="&#xe918;" horiz-adv-x="1569" d="M787.092-53.769h-13.964c-54.488 0.083-98.637 44.232-98.72 98.712v58.532c0 29.922 24.242 54.181 54.158 54.209h103.135c29.928-0.028 54.181-24.281 54.209-54.206v-58.527c-0.083-54.522-44.287-98.692-98.814-98.72h-0.003zM728.519 118.166c-8.034 0-14.546-6.513-14.546-14.546v0-58.524c0.055-32.701 26.55-59.196 59.246-59.251h13.969c32.701 0.055 59.196 26.55 59.251 59.246v58.529c0 8.034-6.513 14.546-14.546 14.546v0z" />
<glyph unicode="&#xe919;" horiz-adv-x="1569" d="M236.617 940.266h571.373c70.508 0 127.667-57.158 127.667-127.667v0-330.828h-826.706v330.828c0 70.508 57.158 127.667 127.667 127.667v0z" />
<glyph unicode="&#xe91a;" horiz-adv-x="1569" d="M955.342 461.795h-866.174v339.41c0.083 87.453 70.955 158.325 158.399 158.408h549.367c87.453-0.083 158.325-70.955 158.408-158.399v-0.008zM128.636 501.312h787.189v300.087c-0.083 65.628-53.262 118.808-118.883 118.89h-549.367c-65.628-0.083-118.808-53.262-118.89-118.883v-0.008z" />
<glyph unicode="&#xe91b;" horiz-adv-x="1569" d="M197.973 653.707h648.564c88.879 0 160.929-72.050 160.929-160.929v-193.949c0-88.879-72.050-160.929-160.929-160.929h-648.564c-88.879 0-160.929 72.050-160.929 160.929v193.949c0 88.879 72.050 160.929 160.929 160.929z" />
<glyph unicode="&#xe91c;" horiz-adv-x="1569" d="M832.912 118.166h-620.635c-107.392 0.11-194.42 87.138-194.53 194.52v166.176c0.11 107.402 87.133 194.441 194.517 194.579h620.648c107.398-0.138 194.42-87.177 194.53-194.568v-166.176c-0.11-107.392-87.138-194.42-194.52-194.53h-0.011zM212.277 633.924c-85.692 0-155.159-69.467-155.159-155.159v0-166.165c0-85.692 69.467-155.159 155.159-155.159v0h620.635c85.692 0 155.159 69.467 155.159 155.159v0 166.165c0 85.692-69.467 155.159-155.159 155.159v0z" />
<glyph unicode="&#xe91d;" horiz-adv-x="1569" d="M904.285 381.5c0-39.552-32.063-71.616-71.616-71.616s-71.616 32.063-71.616 71.616c0 39.552 32.063 71.616 71.616 71.616s71.616-32.063 71.616-71.616z" />
<glyph unicode="&#xe91e;" horiz-adv-x="1569" d="M832.67 296.599c-46.831 0.055-84.776 38.018-84.804 84.85v0.003c0 46.846 37.962 84.825 84.801 84.853h0.003c46.825-0.028 84.776-37.979 84.804-84.801v-0.003c0-46.856-37.956-84.846-84.799-84.901h-0.005zM832.67 439.878c-32.125-0.192-58.103-26.238-58.185-58.371v-0.008c0-32.305 26.174-58.496 58.473-58.524h0.003c32.301 0.028 58.475 26.219 58.475 58.524 0 0 0 0 0 0v0c-0.027 32.301-26.219 58.476-58.524 58.476-0.085 0-0.17 0-0.256-0.001h0.013z" />
<glyph unicode="&#xe91f;" horiz-adv-x="1569" d="M283.456 381.5c0-39.552-32.063-71.616-71.616-71.616s-71.616 32.063-71.616 71.616c0 39.552 32.063 71.616 71.616 71.616s71.616-32.063 71.616-71.616z" />
<glyph unicode="&#xe920;" horiz-adv-x="1569" d="M211.84 296.599c-46.831 0.055-84.776 38.018-84.804 84.85v0.003c0 46.846 37.962 84.825 84.801 84.853h0.003c46.846 0 84.825-37.962 84.853-84.801v-0.003c0-46.873-37.984-84.873-84.85-84.901h-0.003zM211.84 439.878c-32.284-0.028-58.448-26.191-58.475-58.473v-0.003c0-32.305 26.174-58.496 58.473-58.524h0.003c32.311 0.028 58.496 26.213 58.524 58.521v0.003c0 0.014 0 0.031 0 0.048 0 32.322-26.202 58.524-58.524 58.524v0z" />
<glyph unicode="&#xe921;" horiz-adv-x="1569" d="M1208.009 715.625h61.773c93.725 0 169.705-75.98 169.705-169.705v-348.283c0-93.725-75.98-169.705-169.705-169.705h-61.773c-93.725 0-169.705 75.98-169.705 169.705v348.283c0 93.725 75.98 169.705 169.705 169.705z" />
<glyph unicode="&#xe922;" horiz-adv-x="1569" d="M1255.138 8.149h-32.486c-112.656 0.138-203.944 91.426-204.082 204.069v319.010c0.11 112.667 91.415 203.972 204.072 204.082h32.497c112.667-0.11 203.972-91.415 204.082-204.072v-319.104c-0.193-112.614-91.46-203.848-204.069-203.985h-0.013zM1222.652 695.891c-90.82-0.165-164.4-73.745-164.565-164.55v-319.11c0.165-90.82 73.745-164.4 164.55-164.565h32.502c90.82 0.165 164.4 73.745 164.565 164.55v319.013c-0.165 90.82-73.745 164.4-164.55 164.565h-0.016z" />
<glyph unicode="&#xe923;" horiz-adv-x="1569" d="M1231.428 164.665h14.934c22.682 0 41.069-18.387 41.069-41.069v-126.891c0-22.682-18.387-41.069-41.069-41.069h-14.934c-22.682 0-41.069 18.387-41.069 41.069v126.891c0 22.682 18.387 41.069 41.069 41.069z" />
<glyph unicode="&#xe924;" horiz-adv-x="1569" d="M1242.823-57.551h-7.903c-31.861 0.055-57.672 25.883-57.7 57.746v119.815c0.028 31.865 25.838 57.693 57.694 57.748h7.908c31.861-0.055 57.672-25.883 57.7-57.746v-119.815c-0.028-31.865-25.838-57.693-57.694-57.748h-0.005zM1234.919 151.477c-17.332-0.028-31.371-14.084-31.371-31.42v0-119.812c0 0 0 0 0 0 0-17.336 14.039-31.392 31.368-31.42h7.906c17.332 0.028 31.371 14.084 31.371 31.42v0 119.812c0 0 0 0 0 0 0 17.336-14.039 31.392-31.368 31.42h-0.003z" />
<glyph unicode="&#xe925;" horiz-adv-x="1569" d="M1238.895-50.908c-30.629 4.026-54.028 29.966-54.028 61.371 0 2.157 0.11 4.287 0.326 6.387l-0.022-0.263v86.84c-0.193 1.836-0.304 3.967-0.304 6.124 0 31.405 23.399 57.345 53.714 61.337l0.314 0.034c30.631-4.050 54.023-30 54.023-61.413 0-2.142-0.109-4.258-0.321-6.344l0.022 0.262v-87.277c0.165-1.693 0.258-3.661 0.258-5.65 0-31.398-23.371-57.338-53.666-61.373l-0.316-0.034zM1238.895 158.12c-24.712-3.235-43.594-24.159-43.594-49.494 0-1.746 0.090-3.47 0.265-5.17l-0.018 0.213v-87.277c-0.157-1.486-0.247-3.211-0.247-4.957 0-25.335 18.883-46.259 43.342-49.467l0.252-0.027c24.714 3.26 43.59 24.193 43.59 49.536 0 1.731-0.088 3.441-0.26 5.127l0.017-0.212v87.034c0.17 1.546 0.267 3.339 0.267 5.154 0 25.351-18.889 46.291-43.361 49.512l-0.253 0.027z" />
<glyph unicode="&#xe926;" horiz-adv-x="1569" d="M1238.847-64.049c-37.902 4.031-67.171 35.831-67.171 74.468 0 2.188 0.094 4.353 0.278 6.493l-0.019-0.279v87.277c-0.165 1.861-0.258 4.027-0.258 6.215 0 38.637 29.268 70.437 66.843 74.439l0.328 0.028c37.88-4.054 67.123-35.843 67.123-74.463 0-2.189-0.094-4.357-0.278-6.498l0.019 0.279v-87.277c0.165-1.863 0.259-4.030 0.259-6.22 0-38.62-29.243-70.409-66.793-74.434l-0.329-0.029zM1238.847 144.98c-16.389 0-30.159-18.91-30.159-41.311v-87.277c0-22.401 13.819-41.311 30.159-41.311s30.159 18.91 30.159 41.311v87.277c0.048 22.401-13.819 41.311-30.159 41.311z" />
<glyph unicode="&#xe927;" horiz-adv-x="1569" d="M1555.856 701.321c0-23.726-59.872-42.96-133.728-42.96s-133.728 19.234-133.728 42.96c0 23.726 59.872 42.96 133.728 42.96s133.728-19.234 133.728-42.96z" />
<glyph unicode="&#xe928;" horiz-adv-x="1569" d="M1422.37 645.124c-70.743 0-146.868 17.552-146.868 56.148s76.173 56.148 146.868 56.148 146.868-17.552 146.868-56.148-76.367-56.148-146.868-56.148zM1422.37 731.044c-78.307 0-120.539-21.189-120.539-29.82s42.232-29.82 120.539-29.82 120.539 21.189 120.539 29.82-42.475 29.868-120.539 29.868z" />
<glyph unicode="&#xe929;" horiz-adv-x="1569" d="M1212.033 701.321c0-23.726-59.872-42.96-133.728-42.96s-133.728 19.234-133.728 42.96c0 23.726 59.872 42.96 133.728 42.96s133.728-19.234 133.728-42.96z" />
<glyph unicode="&#xe92a;" horiz-adv-x="1569" d="M1078.306 645.124c-70.791 0-146.916 17.552-146.916 56.148s76.173 56.148 146.916 56.148 146.868-17.552 146.868-56.148-76.125-56.148-146.868-56.148zM1078.306 731.044c-78.355 0-120.588-21.189-120.588-29.82s42.232-29.82 120.588-29.82 120.539 21.189 120.539 29.82-42.281 29.868-120.539 29.868z" />
<glyph unicode="&#xe92b;" horiz-adv-x="1569" d="M1326.657 744.281c0-47.479-38.489-85.968-85.968-85.968s-85.968 38.489-85.968 85.968c0 47.479 38.489 85.968 85.968 85.968s85.968-38.489 85.968-85.968z" />
<glyph unicode="&#xe92c;" horiz-adv-x="1569" d="M1240.689 645.173c-54.723 0.055-99.073 44.388-99.156 99.1v0.008c0.083 54.729 44.427 99.074 99.148 99.156h0.008c54.719-0.083 99.053-44.433 99.108-99.151v-0.005c-0.055-54.713-44.394-99.053-99.102-99.108h-0.005zM1240.689 817.108c-40.168 0-72.731-32.563-72.731-72.731v0c0-40.168 32.563-72.731 72.731-72.731v0c40.168 0 72.731 32.563 72.731 72.731v0c0 40.168-32.563 72.731-72.731 72.731v0z" />
<glyph unicode="&#xe92d;" horiz-adv-x="1168" d="M494.334 693.209lNaNNaNclNaNNaNclNaNNaN" />
<glyph unicode="&#xe92e;" horiz-adv-x="1168" d="M104.11 703.454h950.023c49.697 0 89.985-40.288 89.985-89.985v-573.359c0-49.697-40.288-89.985-89.985-89.985h-950.023c-49.697 0-89.985 40.288-89.985 89.985v573.359c0 49.697 40.288 89.985 89.985 89.985z" />
<glyph unicode="&#xe92f;" horiz-adv-x="1168" d="M908.176 683.754h155.449c0.011 0 0.024 0 0.038 0 49.697 0 89.985-40.288 89.985-89.985v0-515.503c0-49.697-40.288-89.985-89.985-89.985v0h-155.487v695.473z" />
<glyph unicode="&#xe930;" horiz-adv-x="1168" d="M631.704 314.548l-161.363-93.149c-5.078-2.982-11.185-4.744-17.703-4.744-19.554 0-35.405 15.851-35.406 35.404v0 186.336c0.001 19.553 15.853 35.404 35.406 35.404 6.518 0 12.625-1.761 17.87-4.834l-0.167 0.090 161.363-93.149c10.674-6.232 17.732-17.631 17.732-30.679s-7.058-24.447-17.564-30.589l-0.168-0.091z" />
<glyph unicode="&#xe931;" horiz-adv-x="1319" d="M214.448 121.124h126.942v-133.459c0-19.771-16.027-35.798-35.798-35.798v0h-55.347c-19.771 0-35.798 16.027-35.798 35.798v0 133.459z" />
<glyph unicode="&#xe932;" horiz-adv-x="1319" d="M976.1 121.124h169.256v-133.459c0-19.771-16.027-35.798-35.798-35.798v0h-97.661c-19.771 0-35.798 16.027-35.798 35.798v0 133.459z" />
<glyph unicode="&#xe933;" horiz-adv-x="1319" d="M311.728 944.132h695.093c74.572 0 135.024-60.452 135.024-135.024v0-554.314h-965.141v554.314c0 74.572 60.452 135.024 135.024 135.024v0z" />
<glyph unicode="&#xe934;" horiz-adv-x="1319" d="M391.786 544.264h576.233c74.572 0 135.024-60.452 135.024-135.024v0-161.174h-846.281v161.174c0 74.572 60.452 135.024 135.024 135.024v0z" />
<glyph unicode="&#xe935;" horiz-adv-x="1319" d="M1061.406 524.758v-178.1h-804.263v178.1c0 66.626-54.011 120.637-120.637 120.637v0 0c-66.626 0-120.637-54.011-120.637-120.637v0-430.842h1286.812v430.842c0 66.626-54.011 120.637-120.637 120.637v0 0c-66.626 0-120.637-54.011-120.637-120.637v0z" />
<glyph unicode="&#xe936;" horiz-adv-x="601" d="M369.514 794.854v80.573c0 39.337-31.889 71.227-71.227 71.227v0c-39.337 0-71.227-31.889-71.227-71.227v0-80.573c-82.967-22.004-142.454-81.196-142.454-150.849 0-88.542 95.658-160.293 213.713-160.293s213.713 71.784 213.713 160.293c-0.066 69.653-59.585 128.844-142.519 150.849z" />
<glyph unicode="&#xe937;" horiz-adv-x="601" d="M298.287 470.267c-125.204 0-227.060 77.884-227.060 173.64 0 71.128 56.798 134.813 142.454 161.015v70.637c0.056 46.698 37.906 84.536 84.603 84.574h0.004c46.7-0.037 84.55-37.876 84.606-84.568v-70.478c85.656-26.235 142.454-89.886 142.454-161.015 0-95.92-101.856-173.804-227.060-173.804zM298.287 933.274c-31.951-0.037-57.843-25.929-57.88-57.876v-90.841l-9.838-2.623c-79.261-21.053-132.517-76.507-132.517-138.059 0-80.999 89.853-146.913 200.334-146.913s200.334 65.914 200.334 146.913c0 61.553-53.289 117.006-132.517 138.059l-9.838 2.623v91.001c-0.13 31.904-26.023 57.716-57.945 57.716-0.046 0-0.093 0-0.139 0h0.007z" />
<glyph unicode="&#xe938;" horiz-adv-x="601" d="M78.9 661.713h438.773c36.204 0 65.554-29.349 65.554-65.554v-581.226c0-36.204-29.349-65.554-65.554-65.554h-438.773c-36.204 0-65.554 29.349-65.554 65.554v581.226c0 36.204 29.349 65.554 65.554 65.554z" />
<glyph unicode="&#xe939;" horiz-adv-x="601" d="M512-64h-427.558c-46.686 0.056-84.518 37.887-84.574 84.568v570.049c0.037 46.7 37.876 84.55 84.568 84.606h427.399c46.712-0.037 84.569-37.895 84.606-84.603v-569.883c0-0.020 0-0.043 0-0.066 0-46.682-37.778-84.541-84.43-84.672h-0.012zM84.442 648.334c-31.951-0.037-57.843-25.929-57.88-57.876v-569.884c0.037-31.951 25.929-57.843 57.876-57.88h427.397c31.951 0.037 57.843 25.929 57.88 57.876v570.048c-0.037 31.951-25.929 57.843-57.876 57.88h-0.004z" />
<glyph unicode="&#xe93a;" horiz-adv-x="601" d="M422.966 461.347h178.1v-26.726h-178.1v26.726z" />
<glyph unicode="&#xe93b;" horiz-adv-x="601" d="M422.966 318.893h178.1v-26.726h-178.1v26.726z" />
<glyph unicode="&#xe93c;" horiz-adv-x="601" d="M422.966 176.407h178.1v-26.726h-178.1v26.726z" />
<glyph unicode="&#xe93d;" horiz-adv-x="911" d="M75.074-49.117c-33.246 0.042-60.185 26.981-60.227 60.223v761.1c0.042 33.246 26.981 60.185 60.223 60.227h0.004c4.925 0.511 297.96 39.616 398.313 39.616 90.65-0.474 357.968-39.069 360.667-39.47 0.403 0.010 0.877 0.015 1.353 0.015 33.48 0 60.663-26.959 61.026-60.353v-761.13c-0.042-33.246-26.981-60.185-60.223-60.227h-0.004z" />
<glyph unicode="&#xe93e;" horiz-adv-x="911" d="M473.387 886.896l1.897-29.73c87.549-0.474 353.846-38.923 356.618-39.288l2.152-0.328h2.152c25.054-0.021 45.359-20.326 45.38-45.378v-761.098c-0.041-25.046-20.334-45.338-45.376-45.38h-761.1c-25.054 0.021-45.359 20.326-45.38 45.378v761.135c0.021 25.054 20.326 45.359 45.378 45.38h1.972l1.933 0.292c2.955 0.401 294.969 39.361 394.374 39.361v29.657zM473.387 886.896c-102.542 0-398.313-39.616-398.313-39.616-41.462 0-75.074-33.612-75.074-75.074v0-761.096c0-41.462 33.612-75.074 75.074-75.074v0h761.096c41.462 0 75.074 33.612 75.074 75.074v0 761.096c0 41.462-33.612 75.074-75.074 75.074v0s-269.944 39.142-360.74 39.616z" />
<glyph unicode="&#xe93f;" horiz-adv-x="911" d="M203.808 926.512h515.046v-198.117h-515.046v198.117z" />
<glyph unicode="&#xe940;" horiz-adv-x="911" d="M431.765 673.349l-67.34-67.34c-10.056-7.198-22.605-11.509-36.161-11.509-22.226 0-41.745 11.59-52.843 29.056l-0.151 0.255-147.557 183.963c-9.743 9.875-15.76 23.446-15.76 38.423 0 12.698 4.325 24.386 11.583 33.67l-0.091-0.121 52.821 52.858c8.41 6.33 19.030 10.138 30.541 10.138 16.163 0 30.573-7.509 39.931-19.228l0.079-0.102 175.099-175.099c12.588-10.030 20.586-25.359 20.586-42.556 0-12.211-4.032-23.48-10.837-32.548l0.101 0.14z" />
<glyph unicode="&#xe941;" horiz-adv-x="911" d="M479.479 673.349l67.34-67.34c10.056-7.198 22.605-11.509 36.161-11.509 22.226 0 41.745 11.59 52.843 29.056l0.151 0.255 147.521 183.963c9.755 9.877 15.78 23.457 15.78 38.444 0 12.689-4.319 24.369-11.567 33.65l0.091-0.121-52.858 52.858c-8.405 6.32-19.018 10.121-30.518 10.121-16.156 0-30.559-7.502-39.917-19.212l-0.079-0.102-175.099-175.099c-12.588-10.030-20.586-25.359-20.586-42.556 0-12.211 4.032-23.48 10.837-32.548l-0.101 0.14z" />
<glyph unicode="&#xe942;" horiz-adv-x="911" d="M677.815 470.891h200.962c10.154 0 18.385-8.231 18.385-18.385v-42.461c0-10.154-8.231-18.385-18.385-18.385h-200.962c-10.154 0-18.385 8.231-18.385 18.385v42.461c0 10.154 8.231 18.385 18.385 18.385z" />
<glyph unicode="&#xe943;" horiz-adv-x="1047" d="M1031.766 439.217c0-269.476-227.555-487.929-508.259-487.929s-508.259 218.453-508.259 487.929c0 269.476 227.555 487.929 508.259 487.929s508.259-218.453 508.259-487.929z" />
<glyph unicode="&#xe944;" horiz-adv-x="1047" d="M45.296 506.104c231.469 23.004 413.921 205.498 436.697 434.962l0.162 2.019c-231.469-23.004-413.921-205.498-436.697-434.962l-0.162-2.019z" />
<glyph unicode="&#xe945;" horiz-adv-x="1047" d="M575.227-23.827c231.469 23.004 413.921 205.498 436.697 434.962l0.162 2.019c-231.469-23.004-413.921-205.498-436.697-434.962l-0.162-2.019z" />
<glyph unicode="&#xe946;" horiz-adv-x="1047" d="mNaNclNaNNaNclNaNNaNNaNNaNclNaNNaNclNaNNaN" />
<glyph unicode="&#xe947;" horiz-adv-x="1110" d="M800.543 918.373c-18.773-120.082-121.449-210.878-245.34-210.921h-0.004c-123.879 0.063-226.534 90.852-245.124 209.52l-0.181 1.4c-128.423-87.87-295.010-334.886-295.010-448.744 0-129.657 216.134-129.657 216.134-129.657v-319.406c0-38.441 31.163-69.604 69.604-69.604h509.393c38.419 0 69.564 31.145 69.564 69.564 0 0.014 0 0.028 0 0.042v-0.002 319.406s216.134 0 216.134 129.657c-0.199 113.857-166.747 360.873-295.17 448.744z" />
<glyph unicode="&#xe948;" horiz-adv-x="1110" d="M722.662 945.076c-10.718-0.278-19.611-7.772-22.015-17.79l-0.032-0.158c-17.739-64.829-76.097-111.697-145.41-111.748h-0.006c-69.303 0.071-127.641 46.932-145.129 110.691l-0.247 1.057c-2.436 10.176-11.329 17.67-22.017 17.948l-0.030 0.001h-54.879c-12.906-0.138-23.315-10.633-23.315-23.558 0-1.435 0.128-2.84 0.374-4.204l-0.021 0.143c19.154-119.698 121.648-210.069 245.259-210.125h0.006c123.634 0.035 226.148 90.413 245.117 208.705l0.188 1.42c0.224 1.221 0.353 2.626 0.353 4.060 0 12.926-10.409 23.42-23.302 23.558h-0.013z" />
<glyph unicode="&#xe949;" horiz-adv-x="1110" d="M800.543 918.373c-18.773-120.082-121.449-210.878-245.34-210.921h-0.004c-123.879 0.063-226.534 90.852-245.124 209.52l-0.181 1.4c-128.423-87.87-295.010-334.886-295.010-448.744 0-129.657 216.134-129.657 216.134-129.657v-319.406c0-38.441 31.163-69.604 69.604-69.604h509.393c38.419 0 69.564 31.145 69.564 69.564 0 0.014 0 0.028 0 0.042v-0.002 319.406s216.134 0 216.134 129.657c-0.199 113.857-166.747 360.873-295.17 448.744z" />
<glyph unicode="&#xe94a;" horiz-adv-x="1110" d="M722.662 945.076c-10.718-0.278-19.611-7.772-22.015-17.79l-0.032-0.158c-17.739-64.829-76.097-111.697-145.41-111.748h-0.006c-69.303 0.071-127.641 46.932-145.129 110.691l-0.247 1.057c-2.436 10.176-11.329 17.67-22.017 17.948l-0.030 0.001h-54.879c-12.906-0.138-23.315-10.633-23.315-23.558 0-1.435 0.128-2.84 0.374-4.204l-0.021 0.143c19.154-119.698 121.648-210.069 245.259-210.125h0.006c123.634 0.035 226.148 90.413 245.117 208.705l0.188 1.42c0.224 1.221 0.353 2.626 0.353 4.060 0 12.926-10.409 23.42-23.302 23.558h-0.013z" />
</font>
</defs>
</svg>
